{"title":"Avengers Age of Ultron 2015 CAM x264 AC3 TiTAN","uid":11846331,"size":1718947032,"categoryP":"video","categoryS":"movies","magnet":"?xt=urn:btih:7ad944b3125900195ebf638b99ca7f2966ffd1c6&amp;dn=Avengers+Age+of+Ultron+2015+CAM+x264+AC3+TiTAN&amp;tr=udp%3A%2F%2Ftracker.openbittorrent.com%3A80&amp;tr=udp%3A%2F%2Fopen.demonii.com%3A1337&amp;tr=udp%3A%2F%2Ftracker.coppersurfer.tk%3A6969&amp;tr=udp%3A%2F%2Fexodus.desync.com%3A6969","seeders":2095,"leechers":69,"uploader":"xxxlavalxxx","files":3,"time":1429954712,"description":" &lt;a href=&quot;http://extraimago.com/image/2aF&quot; rel=&quot;nofollow&quot; target=&quot;_NEW&quot;&gt;http://extraimago.com/image/2aF&lt;/a&gt;\n &lt;a href=&quot;\nhttp://www.imdb.com/title/tt2395427/&quot; rel=&quot;nofollow&quot; target=&quot;_NEW&quot;&gt;\nhttp://www.imdb.com/title/tt2395427/&lt;/a&gt;\n\nWhen Tony Stark tries to jumpstart a dormant peacekeeping program, things go awry and Earth's Mightiest Heroes, including Iron Man, Captain America, Thor, The Incredible Hulk, Black Widow and Hawkeye, are put to the ultimate test as the fate of the planet hangs in the balance. As the villainous Ultron emerges, it is up to The Avengers to stop him from enacting his terrible plans, and soon uneasy alliances and unexpected action pave the way for a global adventure.\n\nDirector: Joss Whedon\nWriters: Joss Whedon, Stan Lee (comic book)\nStars: Robert Downey Jr., Chris Evans, Mark Ruffalo\nGenres: Action | Adventure | Sci-Fi | Thriller\nCountry: USA\nLanguage: English\n\n\nSource: VOBS/Murder THX\n\nPretty nice first vid here.. no camera movement or heads in the way.. lmao\naudio is ok, a little hollow but i had no problem understanding it thru my stereo .. Enjoy\n\nGeneral\n\nFormat                                   : Matroska\nFormat version                           : Version 2\nFile size                                : 1.60 GiB\nDuration                                 : 2h 12mn\nOverall bit rate                         : 1 729 Kbps\nEncoded date                             : UTC 2015-04-25 02:38:23\n\nVideo\nID                                       : 1\nFormat                                   : AVC\nFormat/Info                              : Advanced Video Codec\nFormat profile                           : &lt;a class=&quot;__cf_email__&quot; href=&quot;/cdn-cgi/l/email-protection&quot; data-cfemail=&quot;e4a9858d8aa4a8d0cad5&quot;&gt;[email&amp;#160;protected]&lt;/a&gt;&lt;script cf-hash='f9e31' type=&quot;text/javascript&quot;&gt;\n/* &lt;![CDATA[ */!function(){try{var t=&quot;currentScript&quot;in document?document.currentScript:function(){for(var t=document.getElementsByTagName(&quot;script&quot;),e=t.length;e--;)if(t[e].getAttribute(&quot;cf-hash&quot;))return t[e]}();if(t&amp;&amp;t.previousSibling){var e,r,n,i,c=t.previousSibling,a=c.getAttribute(&quot;data-cfemail&quot;);if(a){for(e=&quot;&quot;,r=parseInt(a.substr(0,2),16),n=2;a.length-n;n+=2)i=parseInt(a.substr(n,2),16)^r,e+=String.fromCharCode(i);e=document.createTextNode(e),c.parentNode.replaceChild(e,c)}}}catch(u){}}();/* ]]&gt; */&lt;/script&gt;\nFormat settings, CABAC                   : Yes\nFormat settings, ReFrames                : 5 frames\nCodec ID                                 : V_MPEG4/ISO/AVC\nDuration                                 : 2h 12mn\nBit rate                                 : 1 600 Kbps\nWidth                                    : 720 pixels\nHeight                                   : 304 pixels\nDisplay aspect ratio                     : 2.35:1\nFrame rate mode                          : Constant\nFrame rate                               : 29.970 fps\nColor space                              : YUV\nChroma subsampling                       : 4:2:0\nBit depth                                : 8 bits\nScan type                                : Progressive\nBits/(Pixel*Frame)                       : 0.244\nStream size                              : 1.45 GiB (91%)\nLanguage                                 : English\nDefault                                  : Yes\nForced                                   : No\nColor primaries                          : BT.601 NTSC\nTransfer characteristics                 : BT.709\nMatrix coefficients                      : BT.601\n\nAudio\nID                                       : 2\nFormat                                   : AC-3\nFormat/Info                              : Audio Coding 3\nMode extension                           : CM (complete main)\nFormat settings, Endianness              : Big\nCodec ID                                 : A_AC3\nDuration                                 : 2h 12mn\nBit rate mode                            : Constant\nBit rate                                 : 128 Kbps\nChannel(s)                               : 2 channels\nChannel positions                        : Front: L R\nSampling rate                            : 44.1 KHz\nBit depth                                : 16 bits\nCompression mode                         : Lossy\nDelay relative to video                  : 20ms\nStream size                              : 121 MiB (7%)\nDefault                                  : Yes\nForced                                   : No\n &lt;a href=&quot;\nhttp://extraimago.com/image/2aH&quot; rel=&quot;nofollow&quot; target=&quot;_NEW&quot;&gt;\nhttp://extraimago.com/image/2aH&lt;/a&gt; &lt;a href=&quot;\nhttp://extraimago.com/image/2ak&quot; rel=&quot;nofollow&quot; target=&quot;_NEW&quot;&gt;\nhttp://extraimago.com/image/2ak&lt;/a&gt; &lt;a href=&quot;\nhttp://extraimago.com/image/2ao&quot; rel=&quot;nofollow&quot; target=&quot;_NEW&quot;&gt;\nhttp://extraimago.com/image/2ao&lt;/a&gt; &lt;a href=&quot;\nhttp://extraimago.com/image/2at&quot; rel=&quot;nofollow&quot; target=&quot;_NEW&quot;&gt;\nhttp://extraimago.com/image/2at&lt;/a&gt; &lt;a href=&quot;\nhttp://extraimago.com/image/2ax&quot; rel=&quot;nofollow&quot; target=&quot;_NEW&quot;&gt;\nhttp://extraimago.com/image/2ax&lt;/a&gt; &lt;a href=&quot;\nhttp://extraimago.com/image/2a6&quot; rel=&quot;nofollow&quot; target=&quot;_NEW&quot;&gt;\nhttp://extraimago.com/image/2a6&lt;/a&gt; &lt;a href=&quot;\nhttp://extraimago.com/image/2aV&quot; rel=&quot;nofollow&quot; target=&quot;_NEW&quot;&gt;\nhttp://extraimago.com/image/2aV&lt;/a&gt; &lt;a href=&quot;\nhttp://extraimago.com/image/2au&quot; rel=&quot;nofollow&quot; target=&quot;_NEW&quot;&gt;\nhttp://extraimago.com/image/2au&lt;/a&gt;","torrent":{"xt":"urn:btih:7ad944b3125900195ebf638b99ca7f2966ffd1c6","amp;dn":"Avengers+Age+of+Ultron+2015+CAM+x264+AC3+TiTAN","amp;tr":["udp%3A%2F%2Ftracker.openbittorrent.com%3A80","udp%3A%2F%2Fopen.demonii.com%3A1337","udp%3A%2F%2Ftracker.coppersurfer.tk%3A6969","udp%3A%2F%2Fexodus.desync.com%3A6969"],"infoHash":"7ad944b3125900195ebf638b99ca7f2966ffd1c6","infoHashBuffer":{"type":"Buffer","data":[122,217,68,179,18,89,0,25,94,191,99,139,153,202,127,41,102,255,209,198]},"announce":[],"urlList":[]}}